<?xml version="1.0" standalone="no"?>
<!DOCTYPE svg PUBLIC "-//W3C//DTD SVG 20010904//EN"
 "http://www.w3.org/TR/2001/REC-SVG-20010904/DTD/svg10.dtd">
<svg version="1.0" xmlns="http://www.w3.org/2000/svg"
 width="1294.000000pt" height="1232.000000pt" viewBox="0 0 1294.000000 1232.000000"
 preserveAspectRatio="xMidYMid meet">
<metadata>
Created by potrace 1.16, written by Peter Selinger 2001-2019
</metadata>
<g transform="translate(0.000000,1232.000000) scale(0.100000,-0.100000)"
fill="#000000" stroke="none">
<path d="M630 11925 l0 -385 70 0 70 0 2 253 3 252 65 -207 65 -208 66 0 66 0
69 227 69 226 3 -271 2 -272 65 0 65 0 0 385 0 386 -97 -3 -96 -3 -72 -254
c-40 -139 -74 -250 -77 -245 -3 5 -36 120 -74 256 l-69 248 -97 0 -98 0 0
-385z"/>
<path d="M1810 11925 l0 -385 260 0 260 0 0 70 0 70 -185 0 -185 0 0 85 0 85
155 0 155 0 0 70 0 70 -155 0 -155 0 0 90 0 90 185 0 185 0 0 70 0 70 -260 0
-260 0 0 -385z"/>
<path d="M2800 11925 l0 -385 157 0 c185 0 251 14 313 67 79 68 85 90 85 318
0 186 -2 203 -22 240 -61 113 -148 145 -395 145 l-138 0 0 -385z m330 232 c19
-7 44 -27 57 -46 21 -32 23 -44 23 -185 0 -163 -5 -185 -53 -220 -23 -17 -46
-22 -118 -24 l-89 -4 0 246 0 246 73 -1 c39 0 88 -5 107 -12z"/>
<path d="M3830 11925 l0 -385 75 0 75 0 0 385 0 385 -75 0 -75 0 0 -385z"/>
<path d="M4561 11958 c-74 -194 -141 -368 -148 -385 l-13 -33 78 0 78 0 21 58
20 57 143 0 143 0 20 -57 19 -58 79 0 79 0 -13 33 c-8 17 -74 191 -148 384
l-134 353 -45 0 -45 0 -134 -352z m223 -21 c21 -61 41 -118 44 -124 3 -10 -19
-13 -88 -13 -69 0 -91 3 -88 13 3 6 22 63 44 125 21 61 41 112 44 112 3 0 23
-51 44 -113z"/>
<path d="M6308 12296 c-119 -44 -176 -149 -148 -275 22 -101 84 -140 272 -172
91 -15 120 -38 116 -92 -5 -64 -38 -82 -146 -81 -89 0 -174 26 -203 60 -10 12
-18 4 -47 -47 -40 -71 -40 -71 53 -115 97 -45 232 -54 338 -22 44 13 111 68
132 107 37 72 27 183 -21 241 -37 43 -70 58 -201 90 -130 32 -153 47 -153 100
0 45 19 64 79 80 53 14 108 6 184 -27 31 -14 59 -24 61 -22 6 7 56 108 56 114
0 3 -30 20 -67 38 -60 28 -80 32 -168 34 -67 2 -112 -1 -137 -11z"/>
<path d="M7251 11958 c-74 -194 -141 -368 -148 -385 l-13 -33 78 0 78 0 21 58
20 57 143 0 143 0 20 -57 19 -58 79 0 79 0 -13 33 c-8 17 -74 191 -148 384
l-134 353 -45 0 -45 0 -134 -352z m223 -21 c21 -61 41 -118 44 -124 3 -10 -19
-13 -88 -13 -69 0 -91 3 -88 13 3 6 22 63 44 125 21 61 41 112 44 112 3 0 23
-51 44 -113z"/>
<path d="M8200 11925 l0 -385 75 0 75 0 0 155 0 155 43 0 43 0 85 -152 86
-153 86 -3 c48 -1 87 -1 87 2 0 2 -40 73 -89 158 -83 142 -88 154 -69 161 79
29 128 113 128 217 0 79 -23 133 -73 177 -53 46 -91 53 -294 53 l-183 0 0
-385z m375 220 c33 -32 35 -101 5 -133 -19 -20 -31 -22 -125 -22 l-105 0 0 90
0 90 100 0 c94 0 103 -2 125 -25z"/>
<path d="M9311 11958 c-74 -194 -141 -368 -148 -385 l-13 -33 78 0 78 0 21 58
20 57 143 0 143 0 20 -57 19 -58 79 0 79 0 -13 33 c-8 17 -74 191 -148 384
l-134 353 -45 0 -45 0 -134 -352z m223 -21 c21 -61 41 -118 44 -124 3 -10 -19
-13 -88 -13 -69 0 -91 3 -88 13 3 6 22 63 44 125 21 61 41 112 44 112 3 0 23
-51 44 -113z"/>
<path d="M10260 11925 l0 -385 70 0 70 0 1 278 0 277 136 -277 136 -278 89 0
88 0 0 385 0 385 -70 0 -70 0 -2 -274 -3 -273 -131 271 -131 271 -92 3 -91 3
0 -386z"/>
<path d="M11441 11958 c-74 -194 -141 -368 -148 -385 l-13 -33 78 0 78 0 21
58 20 57 143 0 143 0 20 -57 19 -58 79 0 79 0 -13 33 c-8 17 -74 191 -148 384
l-134 353 -45 0 -45 0 -134 -352z m223 -21 c21 -61 41 -118 44 -124 3 -10 -19
-13 -88 -13 -69 0 -91 3 -88 13 3 6 22 63 44 125 21 61 41 112 44 112 3 0 23
-51 44 -113z"/>
<path d="M225 10720 l230 -230 2547 0 2548 0 0 -5018 0 -5017 230 -230 230
-230 0 5478 0 5477 -3007 0 -3008 0 230 -230z"/>
<path d="M6590 5473 l0 -5478 230 230 230 230 2 1800 3 1800 44 -70 c107 -170
285 -388 445 -545 l86 -85 0 -1160 0 -1160 235 235 235 235 0 748 0 749 63
-36 c392 -227 791 -359 1262 -417 133 -17 573 -17 695 -1 52 7 135 20 183 29
l88 15 28 -26 27 -26 325 0 324 0 -755 755 c-654 654 -760 756 -790 761 -526
86 -938 355 -1203 786 -319 518 -319 1211 0 1728 263 424 667 693 1168 777
110 18 370 20 480 4 636 -97 1144 -519 1345 -1121 102 -307 112 -662 25 -969
-94 -335 -285 -628 -550 -845 l-70 -57 -162 164 -163 163 -62 -34 c-93 -53
-212 -99 -317 -123 l-94 -21 984 -984 984 -984 325 0 325 0 -371 371 -371 371
172 171 c247 246 405 454 562 742 190 347 306 710 365 1145 17 129 17 593 -1
730 -77 600 -291 1119 -655 1590 -101 130 -337 373 -468 483 -474 392 -1012
627 -1638 713 -155 22 -572 25 -735 6 -450 -52 -871 -191 -1262 -417 l-63 -36
0 520 0 521 1503 0 1502 0 230 230 230 230 -1968 0 -1967 0 0 -927 0 -927
-128 -130 c-144 -148 -272 -304 -369 -451 -36 -55 -70 -104 -74 -110 -5 -5 -9
696 -9 1558 l0 1567 2548 0 2547 0 230 230 230 230 -3008 0 -3007 0 0 -5477z
m3516 2922 c324 -43 567 -116 860 -260 1241 -610 1822 -2062 1346 -3365 -98
-268 -277 -578 -461 -800 -46 -55 -145 -159 -219 -231 l-136 -130 -210 211
-211 210 60 52 c357 305 615 735 709 1184 148 709 -66 1425 -580 1938 -759
760 -1939 836 -2794 181 -542 -416 -858 -1090 -826 -1765 32 -689 378 -1301
953 -1686 189 -127 457 -244 674 -294 l96 -22 308 -308 308 -308 -109 -7
c-213 -13 -546 22 -785 84 -1082 280 -1873 1182 -2015 2296 -22 173 -22 487 0
659 62 487 238 921 534 1315 112 150 363 401 512 512 445 334 925 511 1495
553 93 7 382 -4 491 -19z"/>
<path d="M1265 9680 l230 -230 1507 0 1508 0 0 -1182 0 -1183 -893 893 -892
892 -323 -2 -322 -3 1445 -1445 1445 -1445 0 1968 0 1967 -1967 0 -1968 0 230
-230z"/>
<path d="M2045 7430 l1440 -1440 -1725 -1725 -1725 -1725 325 0 325 0 1725
1725 1725 1725 -1440 1440 -1440 1440 -325 0 -325 0 1440 -1440z"/>
<path d="M3025 4060 l-1520 -1520 325 0 325 0 1177 1177 1178 1178 0 -1700 0
-1700 230 -230 230 -230 0 2060 0 2060 -213 213 -212 212 -1520 -1520z"/>
</g>
</svg>
